<?xml version="1.0" standalone="no"?><!-- Generator: Gravit.io --><svg xmlns="http://www.w3.org/2000/svg" xmlns:xlink="http://www.w3.org/1999/xlink" style="isolation:isolate" viewBox="36.659 35.172 40 38.941" width="40" height="38.941"><path d=" M 56.659 35.172 C 45.613 35.172 36.659 44.114 36.659 55.135 C 36.665 63.738 42.174 71.372 50.336 74.089 C 51.336 74.271 52.044 73.249 52.044 72.48 C 52.044 72.012 52.056 71.446 52.044 69.788 C 46.478 70.988 44.736 67.095 44.736 67.095 C 43.822 64.788 42.718 64.126 42.718 64.126 C 40.902 62.889 42.85 62.926 42.85 62.926 C 44.856 63.058 45.89 64.788 45.89 64.788 C 47.428 67.48 50.902 67.218 52.044 66.711 C 52.044 65.486 52.176 64.594 52.511 64.031 C 46.228 62.923 42.801 59.292 42.813 54.271 C 42.825 51.301 43.847 48.994 45.505 47.286 C 44.785 46.375 44.29 43.249 45.77 41.326 C 49.484 41.326 51.696 44.006 51.696 44.006 C 51.696 44.006 53.438 43.249 56.65 43.249 C 59.868 43.249 61.598 43.969 61.598 43.969 C 61.598 43.969 63.822 41.326 67.536 41.326 C 69.013 43.249 68.521 46.372 67.945 47.228 C 69.533 48.898 70.505 51.206 70.505 54.271 C 70.505 59.295 67.09 62.926 60.819 64.018 C 61.213 64.618 61.275 65.461 61.275 66.711 L 61.275 72.48 C 61.275 73.249 61.973 74.283 62.995 74.089 C 71.152 71.368 76.655 63.735 76.659 55.135 C 76.659 44.114 67.705 35.172 56.659 35.172 Z " fill="rgb(94,114,228)"/></svg>